<svg width="83" height="32" viewBox="0 0 83 32" fill="none" xmlns="http://www.w3.org/2000/svg">
<g clip-path="url(#clip0_147_12135)">
<path d="M33.5129 7.61031L33.467 8.34384C33.3295 8.29799 33.192 8.25215 33.0544 8.2063C33.0086 8.2063 32.9169 8.16046 32.8711 8.16046C32.8252 8.16046 32.7335 8.16046 32.6877 8.16046C32.5043 8.16046 32.3668 8.2063 32.2292 8.25215C32.1375 8.29799 32.0917 8.38968 32.0917 8.48137C32.0917 8.57307 32.1375 8.61891 32.1834 8.66476C32.2292 8.7106 32.3209 8.75645 32.4126 8.80229L32.5501 8.84814C32.9627 8.98567 33.192 9.07736 33.3295 9.16905C33.467 9.26075 33.5587 9.35244 33.6046 9.48997C33.6504 9.62751 33.6963 9.76504 33.6963 9.90258C33.6963 10.2693 33.5587 10.5903 33.3295 10.7736C33.0544 10.957 32.6877 11.0946 32.2292 11.0946C32.0458 11.0946 31.8625 11.0946 31.7249 11.0487C31.5415 11.0029 31.3582 11.0029 31.2206 10.957L31.3123 10.1777C31.4957 10.2693 31.6332 10.3152 31.7708 10.361C31.8625 10.361 31.9083 10.4069 32 10.4069C32.0917 10.4069 32.1375 10.4069 32.2292 10.4069C32.4126 10.4069 32.5501 10.361 32.6418 10.3152C32.7335 10.2693 32.7794 10.1318 32.7794 10.0401C32.7794 9.90258 32.596 9.76504 32.2751 9.62751H32C31.6791 9.48997 31.4499 9.35244 31.3123 9.2149C31.1748 9.07736 31.0831 8.84814 31.0831 8.61891C31.0831 8.25215 31.2206 8.02292 31.4499 7.7937C31.6791 7.61031 32.0458 7.51862 32.5043 7.51862C32.6877 7.51862 32.8252 7.51862 33.0086 7.56447C33.1003 7.56447 33.1461 7.56447 33.2378 7.61031C33.3295 7.56447 33.4212 7.61031 33.5129 7.61031ZM35.851 8.29799H36.7221V11.0946H37.639V8.29799H38.51V7.61031H35.851V8.29799ZM42.5903 9.67335H41.7192L42.1777 8.38968L42.5903 9.67335ZM40.298 11.0487H41.2149L41.49 10.3152H42.8195L43.0487 11.0487H44.0573L42.7278 7.56447H41.6275L40.298 11.0487ZM46.1662 11.0487H46.9914V9.2149C46.9914 9.16905 46.9914 9.07736 46.9914 8.98567C46.9914 8.89398 46.9914 8.80229 46.9914 8.75645C46.9914 8.61891 46.9914 8.52722 46.9456 8.43553C46.9456 8.34384 46.9456 8.25215 46.8997 8.16046C46.9456 8.29799 46.9914 8.43553 46.9914 8.52722C47.0373 8.66476 47.0831 8.75645 47.1289 8.84814L48.1834 11.0029H49.3295V7.51862H48.5043V9.48997C48.5043 9.58166 48.5043 9.7192 48.5043 9.85673C48.5043 9.99427 48.5501 10.1776 48.5501 10.3152C48.5043 10.2235 48.5043 10.1318 48.4585 10.086C48.4126 9.99427 48.4126 9.90258 48.3668 9.90258C48.3209 9.76504 48.2751 9.67335 48.2292 9.62751L47.2206 7.56447H46.0745V11.0487H46.1662ZM53.3181 9.62751C53.5014 9.62751 53.639 9.67335 53.7307 9.7192C53.8223 9.76504 53.8682 9.90258 53.8682 10.0401C53.8682 10.1776 53.8223 10.2693 53.7307 10.361C53.639 10.4527 53.5014 10.4527 53.3181 10.4527H52.9513V9.62751H53.3181ZM53.2264 8.2063C53.4097 8.2063 53.5473 8.25215 53.639 8.29799C53.7307 8.34384 53.7765 8.43553 53.7765 8.57307C53.7765 8.7106 53.7307 8.80229 53.639 8.89398C53.5473 8.93983 53.4097 8.98567 53.1805 8.98567H52.9054V8.2063H53.2264ZM51.9885 11.0487H53.3181C53.8224 11.0487 54.1433 10.957 54.4183 10.8195C54.6476 10.6819 54.7851 10.4069 54.7851 10.086C54.7851 9.85673 54.7393 9.67335 54.6017 9.53582C54.4642 9.39828 54.2808 9.30659 54.0516 9.26075C54.2808 9.2149 54.4183 9.12321 54.5559 8.98567C54.6934 8.84814 54.7393 8.66476 54.7393 8.48137C54.7393 8.16046 54.6476 7.97708 54.4183 7.7937C54.1891 7.61031 53.8682 7.56447 53.4556 7.56447H52.0344V11.0487H51.9885ZM57.2607 9.62751C57.2607 10.1318 57.3983 10.4986 57.6275 10.7736C57.8567 11.0487 58.2235 11.1404 58.7278 11.1404C59.2321 11.1404 59.5989 11.0029 59.8281 10.7736C60.0573 10.4986 60.1948 10.1318 60.1948 9.62751V7.61031H59.3238V9.62751C59.3238 9.90258 59.2779 10.1318 59.1862 10.2693C59.0946 10.4069 58.957 10.4986 58.7278 10.4986C58.5444 10.4986 58.4069 10.4527 58.3152 10.3152C58.2235 10.1776 58.1777 9.94842 58.1777 9.67335V7.65616H57.2607V9.62751ZM62.808 11.0487H65.1461V10.361H63.7708V7.56447H62.8539V11.0487H62.808ZM27.6447 7.2894H28.5616V6.83095H27.6447V7.2894ZM27.6447 11.0487H28.5616V7.56447H27.6447V11.0487ZM31.9542 17.2837C32.1834 17.5129 32.2751 17.8338 32.2751 18.2006C32.2751 18.7507 32.0917 19.1633 31.6791 19.3925C31.2665 19.6676 30.6705 19.8052 29.8911 19.8052H27.6447V13.9828H30.0287C30.7163 13.9828 31.2665 14.1203 31.6332 14.3496C32 14.6246 32.1834 14.9914 32.1834 15.4957C32.1834 15.8166 32.0917 16.0917 31.9083 16.3209C31.7249 16.5501 31.4499 16.6877 31.0831 16.7794C31.4499 16.8711 31.7708 17.0086 31.9542 17.2837ZM29.1576 16.3209H29.616C29.937 16.3209 30.212 16.2751 30.3496 16.1375C30.533 16.0458 30.5788 15.8625 30.5788 15.6332C30.5788 15.404 30.4871 15.2665 30.3496 15.1748C30.212 15.0831 29.9828 15.0372 29.6619 15.0372H29.1117V16.3209H29.1576ZM30.7163 18.0172C30.7163 17.788 30.6246 17.6504 30.4871 17.5129C30.3496 17.4212 30.1203 17.3295 29.7994 17.3295H29.1117V18.7049H29.7077C30.0287 18.7049 30.2579 18.659 30.4413 18.5215C30.6705 18.4298 30.7163 18.2464 30.7163 18.0172ZM41.8567 16.4126L40.7106 13.937H38.9685L41.0774 17.6046V19.7593H42.6361V17.5587L44.745 13.937H43.0946L41.8567 16.4126ZM49.5587 12.6991H48.0917V13.4785H49.5587V12.6991ZM48.8252 17.3754C48.8252 17.8338 48.7335 18.2006 48.5501 18.4298C48.3668 18.659 48.1375 18.7966 47.8166 18.7966C47.4957 18.7966 47.2665 18.7049 47.1289 18.4756C46.9914 18.2464 46.8997 17.8797 46.8997 17.4212V14.0287H45.341V17.4212C45.341 18.2923 45.5702 18.9341 45.9828 19.3467C46.3954 19.7593 47.0373 19.9885 47.8166 19.9885C48.6418 19.9885 49.2837 19.7593 49.6963 19.3467C50.1089 18.9341 50.2923 18.2923 50.2923 17.4212V14.0287H48.8252V17.3754ZM47.5415 12.6991H46.0745V13.4785H47.5415V12.6991ZM36.8596 17.3754C36.8596 17.8338 36.7679 18.2006 36.5845 18.4298C36.4011 18.659 36.1719 18.7966 35.851 18.7966C35.5301 18.7966 35.3009 18.7049 35.1633 18.4756C35.0258 18.2464 34.9341 17.8797 34.9341 17.4212V14.0287H33.3754V17.4212C33.3754 18.2923 33.6046 18.9341 34.0172 19.3467C34.4298 19.7593 35.0716 19.9885 35.851 19.9885C36.6762 19.9885 37.3181 19.7593 37.7307 19.3467C38.1433 18.9341 38.3266 18.2923 38.3266 17.4212V14.0287H36.8596V17.3754ZM37.5931 12.6991H36.1261V13.4785H37.5931V12.6991ZM35.5759 12.6991H34.1089V13.4785H35.5759V12.6991ZM56.8023 13.9828H55.0602L53.2722 16.5043V13.9828H51.7135V19.8052H53.2722V17.1003L55.106 19.8052H57.0315L54.6934 16.6418L56.8023 13.9828ZM64.5043 17.3295H66.8424V16.2292H64.5043V15.0372H66.9799V13.937H62.9456V19.7593H67.0716V18.6132H64.5043V17.3295ZM71.7479 16.1834H69.9599V13.9828H68.4011V19.8052H69.9599V17.3754H71.7479V19.8052H73.3066V13.9828H71.7479V16.1834ZM74.7736 13.4785H76.3324V12.6991H74.7736V13.4785ZM74.7736 19.8052H76.3324V13.9828H74.7736V19.8052ZM82.659 19.8052H81.0544L80.5501 18.2006C80.4585 17.9255 80.3668 17.788 80.2292 17.6504C80.0917 17.5587 79.8625 17.5129 79.5415 17.5129H79.3123V19.8052H77.7994V13.9828H80.0917C80.8711 13.9828 81.4212 14.1203 81.788 14.3496C82.1547 14.5788 82.3381 14.9914 82.3381 15.4957C82.3381 15.8625 82.2464 16.1834 82.063 16.4126C81.8797 16.6418 81.6046 16.8252 81.192 16.9169C81.5129 17.0086 81.7421 17.3295 81.9255 17.8797L82.659 19.8052ZM80.8252 15.7708C80.8252 15.4957 80.7335 15.3123 80.5501 15.1748C80.3668 15.0372 80.0458 14.9914 79.6791 14.9914H79.3123V16.5043H79.8625C80.1834 16.5043 80.4585 16.4585 80.6418 16.3209C80.7794 16.1834 80.8252 16 80.8252 15.7708ZM61.2493 16.6877C61.0201 16.5043 60.6074 16.3209 59.9198 16.1375L59.6447 16.0458C59.4613 16 59.3238 15.9083 59.2321 15.8166C59.1404 15.7249 59.0946 15.6332 59.0946 15.4957C59.0946 15.3123 59.1862 15.1748 59.3696 15.0831C59.553 14.9914 59.7822 14.9456 60.1032 14.9456C60.1948 14.9456 60.3324 14.9456 60.4241 14.9456C60.5158 14.9456 60.6533 14.9914 60.745 14.9914C60.9742 15.0372 61.2034 15.1289 61.4327 15.2206L61.5702 14.0287C61.4327 13.9828 61.2951 13.937 61.2034 13.937C61.0659 13.8911 60.9742 13.8911 60.8367 13.8911C60.5616 13.8453 60.2865 13.8453 60.0115 13.8453C59.2321 13.8453 58.6361 13.9828 58.2235 14.3037C57.8109 14.6246 57.5817 15.0831 57.5817 15.6332C57.5817 16.0458 57.7192 16.3668 57.9484 16.6418C58.1777 16.9169 58.5903 17.1461 59.1404 17.3295L59.4613 17.4212C60.0115 17.6046 60.3324 17.8338 60.3324 18.063C60.3324 18.2464 60.2407 18.4298 60.0573 18.5215C59.8739 18.659 59.6447 18.7049 59.3238 18.7049C59.1862 18.7049 59.0946 18.7049 58.957 18.659C58.8195 18.659 58.7278 18.6132 58.5903 18.5673C58.3152 18.5215 58.086 18.4298 57.8109 18.2923L57.6734 19.5759C57.9484 19.6676 58.2693 19.7135 58.5444 19.7593C58.7278 19.7593 58.8653 19.8052 59.0487 19.8052L59.0029 20.447H60.4699L60.5616 19.6676C60.8367 19.5759 61.1117 19.4842 61.2951 19.3009C61.7077 18.9341 61.937 18.4756 61.937 17.8338C61.937 17.5587 61.8911 17.3295 61.7994 17.1003C61.7077 16.8711 61.4327 16.8252 61.2493 16.6877ZM28.9742 24.7106C29.1576 24.7106 29.2951 24.7564 29.3868 24.8023C29.4785 24.8481 29.5244 24.9857 29.5244 25.1232C29.5244 25.2607 29.4785 25.3524 29.3868 25.4441C29.2951 25.5358 29.1576 25.5358 28.9742 25.5358H28.6075V24.7106H28.9742ZM28.8825 23.3352C29.0659 23.3352 29.2034 23.3811 29.2951 23.4269C29.3868 23.4728 29.4327 23.5645 29.4327 23.702C29.4327 23.8395 29.3868 23.9312 29.2951 24.0229C29.2034 24.0688 29.0659 24.1146 28.8367 24.1146H28.5616V23.3352H28.8825ZM27.6447 26.1776H29.0201C29.5244 26.1776 29.8453 26.086 30.1203 25.9484C30.3496 25.8109 30.4871 25.5358 30.4871 25.2149C30.4871 24.9857 30.4413 24.8023 30.3037 24.6648C30.1662 24.5272 29.9828 24.4355 29.7536 24.3897C29.9828 24.3438 30.1203 24.2521 30.2579 24.1146C30.3496 23.9771 30.4413 23.7937 30.4413 23.6103C30.4413 23.2894 30.3496 23.106 30.1203 22.9226C29.8911 22.7851 29.5702 22.6934 29.1576 22.6934H27.7364V26.1776H27.6447ZM32.0458 26.1776H34.5215V25.49H32.9628V24.7106H34.384V24.0688H32.9628V23.3811H34.4298V22.7393H32V26.1776H32.0458ZM36.3095 26.1776H38.6476V25.49H37.2722V22.6934H36.3553V26.1776H36.3095ZM40.1605 26.1776H42.6361V25.49H41.0774V24.7106H42.4986V24.0688H41.0774V23.3811H42.5444V22.7393H40.1146V26.1776H40.1605ZM45.616 23.3811C45.9828 23.3811 46.212 23.4728 46.3954 23.6562C46.5788 23.8395 46.6705 24.1146 46.6705 24.4355C46.6705 24.7564 46.5788 25.0315 46.3954 25.2149C46.212 25.3983 45.9828 25.49 45.6619 25.49H45.2493V23.3811H45.616ZM44.3324 26.1776H45.4327C45.616 26.1776 45.7536 26.1776 45.937 26.1776C46.0745 26.1776 46.212 26.1318 46.3037 26.1318C46.533 26.086 46.7163 26.0401 46.808 25.9484C47.0831 25.765 47.3123 25.5817 47.404 25.3066C47.5415 25.0774 47.5874 24.7564 47.5874 24.3897C47.5874 24.0688 47.5415 23.7937 47.404 23.5186C47.2665 23.2894 47.0831 23.0602 46.8539 22.9226C46.7163 22.8309 46.533 22.7851 46.3496 22.7393C46.1203 22.6934 45.8911 22.6934 45.5702 22.6934H44.3324V26.1776ZM52.4011 24.894V26.1776H53.3181V24.894L54.6017 22.7393H53.5931L52.9054 24.2063L52.2178 22.7393H51.1633L52.4011 24.894ZM55.8854 26.1776H58.361V25.49H56.8481V24.7106H58.2693V24.0688H56.8481V23.3811H58.3152V22.7393H55.8854V26.1776ZM62.1203 22.6934C62.0287 22.6934 61.9828 22.6476 61.8911 22.6476C61.7536 22.6476 61.5702 22.6017 61.3868 22.6017C60.9284 22.6017 60.5616 22.6934 60.3324 22.8768C60.1032 23.0602 59.9656 23.3352 59.9656 23.702C59.9656 23.9312 60.0573 24.1605 60.1948 24.298C60.3324 24.4355 60.5616 24.5731 60.8825 24.7106L61.0659 24.7564C61.3868 24.894 61.5702 24.9857 61.5702 25.1691C61.5702 25.3066 61.5244 25.3983 61.4327 25.4441C61.341 25.49 61.2034 25.5358 61.0201 25.5358C60.9284 25.5358 60.8825 25.5358 60.7908 25.5358C60.6991 25.5358 60.6533 25.49 60.5616 25.49C60.4241 25.4441 60.2407 25.3983 60.1032 25.3066L60.0115 26.086C60.1948 26.1318 60.3782 26.1776 60.5158 26.1776C60.6991 26.2235 60.8825 26.2235 61.0201 26.2235C61.5244 26.2235 61.8911 26.1318 62.1203 25.9026C62.3496 25.6734 62.4871 25.3983 62.4871 25.0315C62.4871 24.8481 62.4413 24.7106 62.3954 24.6189C62.3496 24.5272 62.2579 24.3897 62.1203 24.298C61.9828 24.2063 61.7077 24.0688 61.341 23.9771L61.2034 23.9312C61.1117 23.8854 61.0201 23.8395 60.9742 23.7937C60.9284 23.7479 60.8825 23.6562 60.8825 23.6103C60.8825 23.5186 60.9284 23.4269 61.0201 23.3811C61.1118 23.3352 61.2493 23.2894 61.4785 23.2894C61.5244 23.2894 61.616 23.2894 61.6619 23.2894C61.7077 23.2894 61.7994 23.2894 61.8453 23.3352C61.9828 23.3811 62.1203 23.4269 62.2579 23.4728L62.3037 22.7393C62.3037 22.6934 62.212 22.6934 62.1203 22.6934ZM49.1003 22.3725H50.0172V21.914H49.1003V22.3725ZM49.1003 26.1776H50.0172V22.6934H49.1003V26.1776ZM64.1375 22.3725H65.0544V21.914H64.1375V22.3725ZM64.1375 26.1776H65.0544V22.6934H64.1375V26.1776ZM5.45559 21.3639V20.4928H4.53868V21.3639H3.66762V20.4928H2.75072V21.3639H1.87966V20.4928H1.0086V21.3639C1.0086 27.0946 5.50143 31.7249 11.1862 32V27.5072C7.97708 27.2779 5.45559 24.6189 5.45559 21.3639ZM21.4097 20.447H22.2808V21.3181C22.2808 27.0487 17.788 31.6791 12.1032 31.9542V27.5072C15.3123 27.2779 17.788 24.5731 17.788 21.3181V20.447H18.659V21.3181H19.5301V20.447H20.4011V21.3181H21.2722V20.447H21.4097ZM6.41834 16.3668H1.0086C1.28367 15.1289 2.4298 14.2579 3.71347 14.2579C5.04298 14.2579 6.14327 15.1289 6.41834 16.3668ZM16.8252 16.3668C17.1003 15.1289 18.2464 14.2579 19.5301 14.2579C20.8596 14.2579 21.9599 15.1748 22.235 16.3668H16.8252ZM6.41834 19.7135H0C0.366762 18.2464 1.65043 17.192 3.20917 17.192C4.76791 17.192 6.09742 18.2923 6.41834 19.7135ZM20.0802 17.192C21.639 17.192 22.9226 18.2464 23.2894 19.7135H16.8711C17.192 18.2923 18.5215 17.192 20.0802 17.192ZM16.8252 21.4097V13.3868L17.5587 12.6533V11.9198H16.8252V8.93983L16.0917 4.49284L15.3582 8.93983V11.9198H14.6246H13.8911V8.93983L14.6246 8.2063V7.47278H13.8911V4.44699L13.1117 0L12.3782 4.44699V7.42693H11.6447H10.9112V4.44699L10.1318 0L9.39828 4.44699V7.42693H8.66476V8.16046L9.39828 8.89398V11.9198H8.66476H7.93123V8.93983L7.19771 4.49284L6.41834 8.93983V11.9198H5.68481V12.6533L6.41834 13.3868V21.3181C6.41834 24.2063 8.75645 26.4986 11.5989 26.4986C14.4871 26.5444 16.8252 24.2521 16.8252 21.4097ZM15.8625 22.1891H13.0659L14.4871 19.7593L15.8625 22.1891ZM13.8911 13.4327L14.6246 12.6991L15.3582 13.4327V17.7421C14.9456 17.2837 14.4413 16.9628 13.8911 16.6877V13.4327ZM13.0659 17.2837L14.4871 19.7135H11.6905L13.0659 17.2837ZM10.9112 8.93983L11.6447 8.2063L12.3782 8.93983V11.9198H11.6447H10.9112V8.93983ZM10.9112 13.4327L11.6447 12.6991L12.3782 13.4327V16.2292C12.149 16.1834 11.8739 16.1834 11.6447 16.1834C11.3696 16.1834 11.1404 16.1834 10.9112 16.2292V13.4327ZM10.2235 17.2837L11.6447 19.7135H8.84814L10.2235 17.2837ZM7.93123 13.4327L8.66476 12.6991L9.39828 13.4327V16.6877C8.84814 16.9628 8.34384 17.3295 7.93123 17.7421V13.4327ZM7.42693 22.1891L8.84814 19.7593L10.2693 22.1891H7.42693ZM8.80229 24.6189L10.2235 22.1891L11.6447 24.6189H8.80229ZM10.2235 22.1891L11.6447 19.7593L13.0659 22.1891H10.2235ZM11.6447 24.6189L13.0659 22.1891L14.4871 24.6189H11.6447Z" fill="#0F4C75"/>
</g>
<defs>
<clipPath id="clip0_147_12135">
<rect width="82.659" height="32" fill="white"/>
</clipPath>
</defs>
</svg>
