<svg width="24" height="24" viewBox="0 0 24 24" fill="none" xmlns="http://www.w3.org/2000/svg">
<path d="M12 6.99999C11.4696 6.99999 10.9609 7.21071 10.5858 7.58578C10.2107 7.96085 10 8.46956 10 8.99999C10 9.53043 10.2107 10.0391 10.5858 10.4142C10.9609 10.7893 11.4696 11 12 11C12.5304 11 13.0391 10.7893 13.4142 10.4142C13.7893 10.0391 14 9.53043 14 8.99999C14 8.46956 13.7893 7.96085 13.4142 7.58578C13.0391 7.21071 12.5304 6.99999 12 6.99999Z" fill="#1B88C5"/>
<path d="M12.8641 20.5731C14.7344 18.1845 19 12.3953 19 9.14349C19 5.19969 15.8646 2 12 2C8.13542 2 5 5.19969 5 9.14349C5 12.3953 9.26562 18.1845 11.1359 20.5731C11.5844 21.1423 12.4156 21.1423 12.8641 20.5731ZM12 6.16703C12.7735 6.16703 13.5154 6.48062 14.0624 7.03882C14.6094 7.59701 14.9167 8.35408 14.9167 9.14349C14.9167 9.93289 14.6094 10.69 14.0624 11.2482C13.5154 11.8063 12.7735 12.1199 12 12.1199C11.2265 12.1199 10.4846 11.8063 9.93761 11.2482C9.39062 10.69 9.08333 9.93289 9.08333 9.14349C9.08333 8.35408 9.39062 7.59701 9.93761 7.03882C10.4846 6.48062 11.2265 6.16703 12 6.16703Z" fill="#1B88C5"/>
</svg>
